<svg xmlns="http://www.w3.org/2000/svg" xml:space="preserve" viewBox="0 0 66 64"><title>Looking</title><path fill="#fff" d="m1.07.455 64.508.289-.49 62.835-64.644.023z"/><path d="M1.308.005C.928.022.578.081.568.17c-.076.6-.034 1.189.09 1.279q.146.105-.007.107c-.15.002-.148.575.005 1.542.041.256.022.466-.043.466C.47 5.318.687 6.149.641 7.756c-.011.335-.06 5.219-.11 10.854C.445 28.434.383 33.594.237 42.339c-.036 2.206-.08 7.43-.098 11.606-.017 4.177-.068 8.126-.113 8.776-.05.734-.027 1.202.061 1.235a.35.35 0 0 0 .256-.012c.174-.099 15.675-.075 15.99.025.153.05.31.038.35-.024.06-.097 17.976-.119 41.613-.05 3.697.01 7.06-.012 7.157-.043 0-.184-.005-10.518-.012-14.707-.024-14.457-.015-19.77.035-21.35a659 659 0 0 0 .143-6.448c.045-2.482.105-5.93.134-7.466s.09-2.952.134-3.146.01-.395-.077-.45a.19.19 0 0 1-.057-.262c.056-.091.099-1.355.095-2.81-.005-1.815.148-2.592.149-2.646L66 4.382c0-.079-.135-.871-.1-2.115.054-1.925.053-1.93-.294-2.094-.28-.132-.348-.125-.348.037 0 .111-.112.207-.25.213a4 4 0 0 0-.538.07c-.507.104-1.843.083-2.507-.04-.738-.136-2.106-.132-2.244.007-.052.05-.18.021-.285-.066-.122-.1-.758-.145-1.733-.12-1.665.041-1.69.041-2.984-.015-.48-.02-.947.009-1.04.066-.092.057-.232.064-.31.016s-.25-.027-.384.048c-.168.094-.304.073-.446-.069-.156-.157-.25-.166-.404-.039-.153.127-.256.12-.441-.03-.105-.085-.163-.127-.184-.12l-.004.002v.001q-.019.022.043.178c.069.185.046.226-.08.144-.262-.167-.586-.185-4.047-.224-1.733-.02-3.339.023-3.567.094-.247.077-.508.076-.645-.001-.126-.072-.713-.113-1.304-.093s-1.14.036-1.218.035C39.57.365 28.984-.303 28.94.274c.047.076.017.138-.066.138-.084 0-.152-.057-.152-.128 0-.074-5.569-.122-13.223-.115C8.226.175 2.307.142 2.232.095c-.133-.082-.543-.107-.923-.09m13.39.72c.877.02 1.741.18 2.467.176C25.318.874 32.642.907 37.57.908c3.724-.003 12.115.078 17.632.08l10.03.002-.056 1.896c-.031 1.043-.086 6.974-.122 13.181-.031 5.317-.09 10.018-.142 11.27a854 854 0 0 0-.003 2.883c-.09 5.363-.246 7.565-.02 11.946.042.69.042.734-.078 10.173-.1 7.918.044 10.042-.02 10.786-.005.073-.628.115-2.516.132-.944.008-2.205.01-3.863.006-1.658-.003-3.62-.012-6.154-.027a6 6 0 0 1-.875.039c-.876-.02-1.74.054-2.467.058-8.151.027-15.475.06-20.403.06-1.38.001-7.871.216-9.593.047-.585-.058-1.21-.072-1.388-.033-.258.058-2.255.079-2.255.079l-3.583-.077c-1.97-.042-3.807-.068-4.083-.057-2.442.098-6.167-.014-6.304-.047-.126-.031-.12-.259-.265-.297-.206-.054-.28-.254-.342-.913-.043-.463-.056-1.068-.028-1.344.07-.682.214-19.6.207-26.936.088-5.363.356-7.6.13-11.982-.041-.69-.04-.734.079-10.173.1-7.918.14-10.042.203-10.786.006-.073.628-.115 2.517-.131C4.752.734 6.012.733 7.67.736c1.658.004 3.62.013 6.155.027.29-.036.583-.045.875-.038"/></svg>