<svg xmlns="http://www.w3.org/2000/svg" xml:space="preserve" viewBox="0 0 57 88"><title/><path d="M.217.047S.152.413.265 2.061c.043.627.141 2.967.008 5.2-.314 5.265-.337 6.779-.17 11.171.211 5.577.217 5.844.233 9.283.008 1.77.046 4.188.084 5.373.105 3.229.204 11.213.176 14.097-.033 3.354.013 10.541.076 12.072.028.667.027 2.174-.002 3.349-.068 2.675-.022 3.62.407 8.506.351 3.99.394 4.554.47 7.697 0 6.157.02 7.147.107 8.493 1.487.06 7.117.12 10.421.036 1.056-.04 2.711-.05 3.518-.022s1.707.046 2.003.041c3.244-.058 5.66-.034 8.563.087 1.903.079 3.765.125 4.137.102.373-.023 2.591.085 4.932.24 4.708.31 8.773.284 12.818-.087 1.469-.134 3.993-.181 5.608-.104.928.044 2.521.05 3.04.025l.19-6.717c.01-.58.018-1.184.04-1.522.096-1.49.102-5.048.015-9.281-.017-.813-.046-2.446-.065-3.628a316 316 0 0 0-.17-6.459c-.124-3.387-.213-6.982-.217-8.744-.01-4.217.032-8.238-.006-13.444s-.212-10.89-.361-20.075a970 970 0 0 0-.13-7.24c-.033-2.916-.248-5.834-.188-8.751 0 0-7.42.048-10.72-.346-1.952-.233-4.805-.367-6.338-.459C32.105.558 28.129.733 26.491.813c-7.047-.379-6.3-.52-14.36-.68A36 36 0 0 0 9.585.129c-3.26.14-6.476.053-7.426-.071S.217.047.217.047m12.839 1c.876.05 2.42.056 3.432.011 1.011-.044 3.708.125 5.833.375s4.535.403 5.356.339c3.342-.26 13.683-.077 18.24.672 1.47.242 4.24.226 5.758.204a19 19 0 0 1 2.506.054c.204.02.624.25.629.527.008.396.017.987.017 1.514 0 .893-.006 2.162.023 2.952.212 5.758.21 6.256.18 12.963-.007 1.989.03 4.09.083 4.672s.117 1.918.141 2.97c.025 1.053-.152 3.744.008 5.98s.019 5.635.027 7.552c.008 1.918.023 4.151.032 4.963s.018 2.26.02 3.219c.007 2.953.068 8.121.112 9.397.098 2.846.092 5.904-.015 7.635-.062 1.022-.075 3.371-.027 5.221.047 1.85.043 4.714-.01 6.548-.051 1.834-.056 3.763-.01 4.286.047.524.075 1.522.064 2.218-.023 1.453.013 1.433-2.36 1.281-.876-.055-2.806-.056-4.289 0-1.483.055-3.115.084-3.628.064-1.985-.077-4.885-.066-5.09.02-.117.048-1.218.049-2.447.002-2.743-.105-6.745-.163-10.131-.148-1.402.006-3.18-.003-5.486-.053-2.307-.05-5.535 0-7.105-.063-1.571-.062-5.25-.142-6.666-.114-.74.015-2.204-.032-3.255-.103-2.792-.07-1.924-.555-2.13-3.165a60 60 0 0 1-.14-3.238c-.02-1.475-.2-4.531-.556-9.72a103 103 0 0 1-.127-3.37c-.171-7.445-.324-12.648-.4-13.597-.117-1.454-.135-5.27-.034-7.24.045-.878.054-2.142.02-2.811a745 745 0 0 1-.368-11.046c-.01-.665-.062-1.397-.112-1.626-.05-.23-.048-1.797.006-3.483.053-1.687.033-3.86-.044-4.83a37 37 0 0 1-.078-3.534c.034-.973.01-1.894-.054-2.046-.063-.153-.067-1.704-.008-3.448.268-7.908.299-9.646.187-10.737-.066-.64-.068-1.201-.004-1.245s1.196-.038 2.514.014a77 77 0 0 0 5.095-.017c1.484-.061 3.415-.07 4.291-.019"/></svg>