<svg width="912" height="917" viewBox="0 0 912 917" fill="none" xmlns="http://www.w3.org/2000/svg">
<path d="M805.336 187.479C795.135 176.389 781.088 162.768 769.97 152.897C766.497 149.809 768.49 151.133 766.1 148.998C761.439 144.845 756.77 141.232 752.025 137.286C750.453 135.974 752.857 137.104 751.204 135.731C742.143 128.207 733.029 121.751 723.219 114.986C674.979 81.6603 621.239 58.7672 563.742 47.0199C544.822 43.123 521.616 38.5693 501.576 38.5494C499.242 38.5485 500.508 40.396 500.056 40.5259C493.008 42.59 495.528 39.0247 491.013 38.4311C473.107 36.1327 452.89 36.7759 435.766 39.5301C428.483 40.7264 436.196 43.9067 428.647 42.5569C428.12 42.4679 429.743 40.0375 427.713 40.0635C423.093 40.1055 414.559 41.8117 411.033 42.2561C404.227 43.0791 403.118 43.3137 396.771 44.5708C388.096 46.2975 377.588 47.5838 368.551 50.6745C366.63 51.3444 369.833 53.029 366.849 54.3303C363.865 55.6149 355.727 57.9263 352.827 58.2648C349.926 58.5853 350.489 56.2751 349.869 55.992C344.644 53.5369 337.007 62.033 335.913 62.6415C315.146 72.9827 296.003 78.4791 276.999 89.0455C262.715 97.048 248.727 107.458 236.084 116.534C235.979 116.61 235.874 116.685 235.769 116.76C220.629 127.624 207.467 136.378 194.396 148.989C193.028 150.317 197.159 151.533 195.514 153.156C178.052 170.442 161.844 188.417 145.247 206.572C143.576 208.4 142.672 203.74 140.824 205.453C129.582 215.755 110.258 233.058 119.579 248.77C114.071 257.301 107.965 267.961 101.209 274.889C96.8555 279.376 95.6156 272.435 94.1415 279.83C93.8175 281.495 97.8861 280.996 97.1745 283.369C94.1997 293.339 88.9988 303.408 87.378 313.671C87.0596 315.756 90.275 316.298 90.6314 317.041C93.4819 323.167 83.7062 328.408 82.6343 330C74.6589 341.794 73.7538 352.05 70.9966 364.439C70.365 367.322 75.3987 364.856 74.9604 367.644C72.6561 382.074 70.093 396.871 66.743 410.926C65.99 414.057 62.4422 410.747 61.886 412.234C59.496 418.861 66.6429 420.947 64.6914 427.252C64.2935 428.59 61.034 427.623 60.6574 427.85C54.7366 431.456 62.6887 435.3 62.838 436.282C64.8996 448.948 56.4454 457.07 58.1366 469.483C58.3571 470.95 62.4398 467.471 62.8085 471.58C65.3217 498.937 68.5348 527.563 72.0469 554.909C72.6052 559.166 68.69 557.043 68.368 557.398C63.4292 563.292 72.3202 563.86 72.9984 565.088C78.1555 574.929 74.7414 587.017 86.7437 590.642C96.7171 626.494 116.597 657.88 135.02 689.879C135.02 689.879 135.02 689.879 135.02 689.879C139.617 697.851 144.045 705.765 148.423 714.069C148.713 714.596 144.783 716.394 145.381 717.44C152.651 730.005 155.965 723.711 168.011 725.393C171.001 725.776 168.726 737.477 168.686 738.441C168.386 741.906 162.207 744.414 162.377 745.327C164.043 752.794 178.139 737.835 184.096 743.819C184.262 744.032 180.8 745.921 181.044 746.695C181.805 749.118 184.442 749.598 185.114 752.054C186.617 757.661 181.229 766.319 190.95 767.281C192.187 767.366 198.83 757.768 204.157 763.165C206.245 765.36 216.731 773.799 219.252 776.657C221.75 779.564 217.433 780.926 217.541 781.217C222.698 791.411 218.386 790.658 218.292 799.678C218.34 808.698 227.288 793.768 230.112 793.418C232.913 793.073 236.816 800.712 237.621 802.925C238.398 805.143 235.133 805.8 236.088 807.397C242.59 817.9 244.849 802.892 249.346 802.546C259.837 801.564 258.82 815.85 265.136 820.846C266.825 822.182 266.728 818.803 268.507 819.486C275.511 822.185 277.683 827.823 286.905 828.366C288.448 828.477 297.775 824.567 299.43 831.446C299.669 832.438 296.732 834.561 299.345 836.521C303.23 839.459 310.933 843.486 316.091 844.4C319.89 845.076 317.759 838.695 321.569 841.912C323.274 843.34 318.539 844.74 321.861 847.188C325.171 849.655 334.803 852.957 338.507 854.053C342.202 855.168 341.402 850.814 341.781 850.665C344.027 849.848 351.528 850.26 352.14 850.437C383.082 859.407 411.89 871.192 444.044 871.449C446.55 871.468 445.144 867.435 445.529 867.397C454.099 866.315 446.774 876.301 452.662 880.096C452.167 872.121 455.648 873.77 461.722 873.086C464.644 872.744 463.124 869.643 463.398 869.338C467.75 864.822 470.63 870.83 471.419 872.055C474.281 876.567 477.377 871.248 479.358 874.218C481.374 877.153 476.895 881.643 482.801 881.465C484.368 878.632 479.899 871.412 484.248 870.139C500.508 865.622 531.438 868.183 544.804 866.199C558.01 864.48 562.116 862.998 569.894 862.22C583.971 860.594 577.733 856.816 585.411 852.379C593.053 847.845 592.562 860.907 594.528 863.136C596.5 865.341 597.022 862.305 598.948 863.247C600.879 864.18 598.164 866.937 601.864 866.348C605.618 865.76 613.649 858.029 613.921 854.992C614.532 848.571 608.311 844.313 617.934 843.153C618.492 843.084 617.946 846.703 620.03 846.282C636.498 842.828 652.553 835.9 668.397 830.044C670.583 829.236 670.334 833.222 671.63 832.778C685.129 827.991 677.986 825.274 681.458 816.115C684.143 824.224 690.437 826.673 699.708 820.95C705.264 817.487 702.348 815.045 704.465 810.675C705.09 809.373 710.234 808.916 709.984 807.055C709.165 800.991 702.249 798.336 712.553 794.267C712.558 794.266 712.562 794.264 712.566 794.262C712.728 794.2 712.89 794.569 713.096 795.039C713.367 795.656 713.713 796.448 714.235 796.659C714.442 796.743 714.677 796.735 714.946 796.589C724.38 791.367 722.054 786.11 730.665 778.731C737.444 772.945 751.781 765.317 759.649 758.688C765.313 765.117 771.143 756.826 769.834 749.967C774.759 745.468 779.505 740.117 784.467 735.894C786.167 734.44 786.934 737.099 787.313 737.065C793.205 736.533 791.049 730.702 791.836 729.503C800.568 716.479 811.615 708.826 817.198 694.488C817.392 693.969 813.566 690.3 819.009 689.235C819.373 689.163 818.538 694.573 822.686 688.896C826.842 683.272 836.34 673.478 839.219 663.831C839.929 661.494 839.403 654.438 844.424 651.722C845.1 651.36 846.001 652.633 847.127 652.185C850.727 650.688 847.151 647.004 852.442 645.758C857.723 644.523 863.754 639.047 865.274 628.732C865.329 628.4 862.902 624.749 864.2 621.912C866.28 617.379 869.656 611.102 871.489 606.22C872.368 603.885 869.74 604.594 869.857 604.176C874.652 588.155 880.212 577.518 885.562 560.326C886.539 557.154 886.244 547.411 889.589 541.634C893.173 535.225 901.047 544.231 901.533 527.603C901.588 520.798 892.025 511.156 898.901 500.262C900.036 477.594 903.175 456.591 900.467 433.856C900.344 432.832 897.821 429.725 897.734 427.338C897.598 423.785 898.535 421.767 898.409 419.226C897.89 408.571 895.935 398.97 894.582 388.801C894.046 384.938 895.2 386.134 894.482 381.529C893.731 376.934 892.044 374.099 891.365 367.809C890.85 363.053 892.001 357.922 890.639 351.699C888.523 351.961 887.564 347.709 885.038 340.393C884.553 338.991 884.316 340.701 884.054 340.047C882.989 337.393 882.807 334.706 881.709 332.207C881.444 331.599 880.835 331.747 880.587 331.261C878.503 327.124 877.574 319.524 877.349 318.236C876.594 313.263 875.145 311.302 874.167 307.605C873.153 303.918 875.463 309.146 874.092 304.9C871.239 296.128 866.562 285.171 862.661 276.682C861.097 273.291 861.724 275.806 861.49 275.325C858.208 268.348 855.036 261.146 852.441 257.699C851.596 252.108 850.218 253.625 845.221 243.747C844.828 242.981 844.821 241.699 846.588 244.549C848.366 247.405 850.634 251.954 852.991 255.951C853.544 256.902 857.287 262.041 857.758 262.784C861.364 268.565 860.272 270.138 860.344 270.497C861.205 274.558 865.452 281.035 866.402 282.854C870.64 291.184 873.357 298.543 876.521 305.699C878.574 310.373 880.369 310.277 881.759 314.045C886.336 326.607 884.914 331.859 890.97 343.229C892.248 345.688 893.939 342.495 894.706 352.312C894.784 352.936 894.777 360.276 896.912 364.087C897.185 364.565 897.951 364.389 898.181 365.048C899.704 369.472 899.765 372.608 901.132 377.486C902.497 382.355 904.191 388.284 904.882 394.021C905.316 397.485 904.266 402.096 904.056 403.791C903.456 408.569 906.148 413.362 904.896 416.387C903.583 419.415 900.674 413.969 900.261 421.607C902.917 421.697 905.687 422.153 908.401 422.429C910.092 439.311 909.872 456 909.728 473.019C909.714 475.132 911.448 473.053 911.481 475.328C911.607 484.942 909.941 493.208 909.654 503.175C909.434 510.889 910.555 519.617 910.033 527.78C905.279 531.986 904.795 544.038 902.688 552.519C901.954 555.482 900.825 555.004 899.995 557.027C896.831 564.64 901.539 561.894 901.675 564.252C902.181 574.435 893.044 572.75 890.173 583.59C890.019 584.144 892.853 592.765 892.864 593.864C892.995 600.733 890.841 594.308 889.271 598.026C886.366 604.804 883.503 609.142 881.996 617.809C881.559 620.321 882.603 627.361 878.282 630.849C877.716 631.304 876.152 630.229 875.856 630.662C870.593 638.519 875.806 641.18 875.473 647.044C875.133 652.94 867.821 658.639 865.974 659.556C861.219 662.046 866.276 655.897 866.091 655.532C864.047 651.344 862.001 657.042 859.624 660.974C853.994 658.711 851.32 664.451 857.166 665.051C857.813 665.104 858.964 661.663 859.624 660.974C863.026 667.353 860.458 674.285 851.684 678.178C847.55 679.966 846.655 675.405 841.964 685.427C839.8 689.953 844.516 690.675 843.18 695.127C840.104 705.39 829.235 714.005 823.49 722.828C821.417 726.043 825.64 724.611 824.286 726.874C820.68 732.903 815.398 736.537 811.728 742.615C811.399 743.168 814.459 743.741 813.105 745.46C802.821 758.547 791.75 768.068 779.361 780.165C773.416 786.027 763.384 797.406 756.487 802.765C748.788 808.852 738.959 814.139 730.12 819.254C725.244 822.084 720.745 824.837 717.194 827.728C710.666 832.987 713.874 834.599 711.974 838.438C708.269 845.95 693.817 845.892 691.843 845.612C691.797 845.606 697.596 841.277 693.485 841.803C689.881 839.938 691.913 845.551 691.843 845.612C690.541 845.561 677.611 851.961 675.35 853.792C674.132 854.823 676.298 857.186 675.632 857.674C659.657 869.27 641.921 878.235 622.753 883.745C622.404 883.805 621.7 880.199 620.898 880.378C609.696 882.737 604.094 889.235 595.682 894.602C587.278 899.932 579.541 901.048 572.706 896.084C565.959 898.591 555.337 897.919 549.327 897.23C543.321 896.55 543.656 903.998 543.163 904.24C527.789 911.608 517.757 908.603 500.983 909.281C492.972 909.625 477.129 911.404 468.382 912.229C461.474 912.936 457.383 911.05 450.989 912.015C450.122 912.142 450.825 915.634 450.556 915.759C443.18 919.652 447.089 911.29 445.716 909.718C440.762 903.95 437.869 900.845 428.737 902.695C426.671 903.117 419.287 914.827 415.302 915.121C410.182 915.475 412.647 911.291 407.306 911.711C406.85 911.739 406.555 914.48 403.346 913.93C388.441 911.403 372.616 906.811 357.36 903.393C355.273 902.913 356.848 907.865 353.791 907.234C339.449 904.267 324.007 899.481 311.314 892.752C308.197 891.082 311.359 888.859 310.97 887.727C308.622 880.876 299.587 886.235 298.477 885.969C272.647 880.068 257.952 864.67 233.37 854.613C232.067 854.127 217.634 855.98 217.613 846.754C217.578 846.127 217.847 836.9 211.25 839.005C210.832 839.131 211.107 844.23 206.878 840.896C202.672 837.572 193.972 834.82 190.76 826.804C189.705 824.253 190.283 814.76 180.98 815.448C180.42 815.596 162.813 819.78 166.3 809.697C166.889 808.042 174.213 800.584 164.537 799.248C162.668 798.986 163.251 802.636 159.167 800.958C152.861 798.355 148.627 790.57 139.733 788.362C138.189 788.011 128.865 788.804 129.466 781.599C129.57 780.481 133.071 779.059 131.65 777.005C124.94 767.254 114.977 759.531 109.334 748.758C107.341 744.943 113.118 743.046 111.61 738.709C110.081 734.356 106.068 726.676 101.31 724.55C96.5353 722.408 92.1243 731.81 87.4803 726.581C86.8861 725.907 86.2995 725.226 85.7203 724.539C85.7203 724.539 85.7203 724.539 85.7203 724.539C66.6839 701.951 56.448 673.91 45.196 647.201C43.4852 643.099 42.0223 647.807 39.3281 641.803C29.0244 619.856 13.3608 580.12 15.842 557.955C17.653 540.494 26.041 559.994 25.6031 547.231C25.4156 541.159 14.0973 536.611 13.5271 535.165C7.85186 521.365 11.1362 510.667 8.57125 497.856C8.05205 495.194 4.13503 498.229 3.74403 495.941C2.38051 488.107 3.77539 479.677 3.21515 472.164C2.9596 468.79 -0.177726 469.52 0.00792807 466.379C0.434191 458.876 1.80782 452.206 4.94763 445.029C5.23322 444.385 9.00953 448.85 9.3083 443.417C9.80045 434.593 13.3117 423.939 11.3332 413.658C10.7403 410.611 3.67667 409.792 9.29171 403.82C10.4805 402.566 18.6608 405.238 12.3479 396.954C11.2475 395.634 3.39298 381.528 10.8204 376.326C12.7587 374.953 20.2842 372.038 19.921 368.342C19.8491 367.83 15.7712 369.071 16.0073 366.062C16.9229 355.454 19.9095 344.737 21.7258 333.953C22.2127 331.062 17.3183 334.278 18.1841 329.978C20.5626 318.135 26.3073 304.094 31.6235 293.55C33.5895 289.661 35.4406 293.522 35.8733 293.34C42.833 290.571 36.9939 285.237 37.2362 283.512C38.8058 272.92 45.2733 266.971 48.5729 257.992C49.5073 255.509 45.5289 255.74 45.4774 255.135C45.167 248.907 49.0093 255.227 51.1699 252.418C57.2531 244.567 62.0691 235.042 66.6372 226.377C68.31 223.204 62.8048 224.75 64.3663 221.913C73.5798 205.069 85.3489 188.667 98.5087 175.271C100.998 172.748 101.987 176.247 102.974 176.074C109.778 174.957 109.331 165.455 109.986 163.766C112.804 156.157 116.802 155.503 120.972 150.163C141.372 123.797 173.952 98.0202 200.191 81.4198C202.802 79.7375 205.394 78.1145 207.969 76.5431C239.032 57.833 266.108 46.1719 298.744 33.0348C301.004 32.1478 297.511 30.1099 299.457 29.3133C324.719 19.2231 350.934 13.3855 377.4 7.96803C379.585 7.53448 375.856 5.4554 379.363 4.68714C386.563 3.0952 395.819 2.01082 403.337 2.03455C406.991 2.04036 402.505 4.72946 406.159 4.68818C414.653 4.60421 423.615 4.05827 432.193 3.25376C435.845 2.91612 430.086 0.662172 434.869 0.43937C467.444 -1.06031 499.704 1.11322 531.385 9.53267C533.56 10.1209 534.896 14.5586 539.617 14.6467C540.138 13.5897 540.323 12.2658 540.661 11.0965C586.691 19.8085 629.973 37.4045 670.068 60.2186C671.756 61.1894 669.465 58.2605 672.733 60.1562C691.654 71.1626 709.267 83.0443 725.996 97.734C727.648 99.1945 725.784 99.8611 730.952 103.704C731.88 104.362 739.467 110.432 741.523 111.85C741.808 112.039 740.919 110.308 743.271 112.375C756.971 124.443 770.151 138.173 781.811 151.995C783.696 154.23 781.361 152.167 782.705 153.756C792.226 164.899 802.165 177.348 810.11 188.896C815.39 196.557 813.262 193.853 816.026 197.963C816.424 198.537 819.726 203.282 819.874 203.546C820.282 204.198 818.553 201.99 819.173 202.961C819.281 203.111 822.134 206.812 822.131 206.817C822.131 206.817 821.885 206.493 821.241 205.668C821.051 205.406 817.56 201 816.656 199.956C816.031 199.225 817.091 200.591 815.815 199.1C814.53 197.617 813.2 195.929 811.045 193.511C808.865 191.105 809.746 192.271 805.336 187.479ZM522.446 893.39C516.798 890.414 517.334 903.692 522.814 899.839C523.077 899.636 522.739 893.532 522.446 893.39ZM905.514 455.875C903.187 462.611 906.629 467.347 908.511 462.589C910.311 457.789 906.182 453.802 905.514 455.875ZM897.772 386.159C897.605 394.141 903.702 394.573 901.024 386.348C900.866 385.87 897.774 385.691 897.772 386.159ZM802.18 179.642C802.219 179.7 804.785 182.966 804.849 183.043C806.367 184.661 801.284 178.085 802.18 179.642ZM879.761 319.325C880.051 321.786 882.78 328.353 882.496 325.243C882.254 322.729 879.38 316.239 879.761 319.325ZM261.819 827.188C261.854 826.96 259.359 825.322 258.799 826.422C257 829.981 261.209 831.057 261.819 827.188ZM827.604 214.652C837.36 228.903 841.795 238.577 832.194 222.333C830.407 219.439 836.191 228.478 833.954 224.766C829.78 218.044 826.778 213.701 822.216 206.94C821.367 205.737 827.044 213.844 827.622 214.677C827.616 214.669 827.61 214.66 827.604 214.652ZM517.731 877.936C517.61 877.778 513.501 878.023 513.42 878.201C511.582 882.624 519.944 882.107 517.731 877.936ZM138.559 708.113C138.74 707.696 133.458 699.954 132.98 699.915C123.728 700.49 134.602 716.47 138.559 708.113ZM759.923 758.745C760.855 753.329 764.376 749.509 769.817 749.978C766.529 752.894 763.287 755.93 759.923 758.745Z" fill="black"/>
</svg>
