<svg width="732" height="710" viewBox="0 0 732 710" fill="none" xmlns="http://www.w3.org/2000/svg">
<g clip-path="url(#clip0_1_2)">
<path d="M14.5071 0.0559421C10.2925 0.244536 6.41072 0.899067 6.29981 1.88641C5.4569 8.54266 5.92272 15.0769 7.29799 16.0753C8.37751 16.8519 8.35163 17.2476 7.22036 17.2623C5.55672 17.2845 5.5789 23.6413 7.27581 34.3689C7.73054 37.2089 7.51981 39.5386 6.7989 39.5386C5.2129 58.997 7.61963 68.2159 7.10945 86.0436C6.98745 89.76 6.44399 143.942 5.88945 206.455C4.93563 315.44 4.24799 372.684 2.62872 469.699C2.22945 494.172 1.74145 552.125 1.54181 598.453C1.35326 644.791 0.787628 688.601 0.288537 695.812C-0.266008 703.954 -0.0109173 709.146 0.965083 709.512C1.8943 709.829 2.90879 709.781 3.80436 709.379C5.73417 708.281 177.654 708.547 181.148 709.657C182.845 710.211 184.586 710.078 185.03 709.39C185.695 708.314 384.4 708.07 646.556 708.836C687.559 708.947 724.858 708.703 725.933 708.359C725.933 706.317 725.878 591.675 725.8 545.203C725.534 384.821 725.634 325.879 726.189 308.351C726.834 284.51 727.363 260.665 727.775 236.819C728.274 209.284 728.939 171.033 729.261 153.993C729.582 136.953 730.259 121.244 730.747 119.092C731.235 116.94 730.858 114.71 729.893 114.1C729.425 113.797 729.095 113.322 728.977 112.777C728.858 112.232 728.96 111.663 729.261 111.193C729.882 110.184 730.359 96.1611 730.314 80.0197C730.259 59.8845 731.956 51.2647 731.967 50.6656L732 48.6133C732 47.7369 730.503 38.9506 730.891 25.15C731.49 3.79454 731.479 3.73907 727.63 1.91969C724.525 0.455317 723.771 0.532973 723.771 2.33016C723.771 3.56157 722.529 4.62657 720.998 4.69313C718.994 4.81661 717 5.07606 715.031 5.46969C709.408 6.62344 694.591 6.39047 687.226 5.02594C679.041 3.51719 663.869 3.56157 662.338 5.1036C661.761 5.65829 660.342 5.33657 659.177 4.37141C657.824 3.26204 650.77 2.76282 639.957 3.04016C621.49 3.495 621.213 3.49501 606.861 2.87375C601.538 2.65188 596.358 2.9736 595.327 3.60594C594.307 4.23829 592.754 4.31594 591.889 3.78344C591.024 3.25094 589.116 3.48391 587.63 4.31594C585.767 5.35876 584.258 5.12579 582.683 3.55047C580.953 1.80875 579.911 1.70891 578.203 3.11782C576.506 4.52672 575.363 4.44907 573.311 2.785C572.147 1.84204 571.504 1.3761 571.271 1.45375L571.226 1.47594V1.48704C571.086 1.64974 571.245 2.30797 571.703 3.46172C572.469 5.51407 572.213 5.96891 570.816 5.05922C567.91 3.20657 564.317 3.00688 525.931 2.57422C506.711 2.35235 488.899 2.82938 486.37 3.61704C483.63 4.47126 480.736 4.46016 479.216 3.60594C477.819 2.80719 471.308 2.35235 464.754 2.57422C458.199 2.7961 452.11 2.9736 451.245 2.9625C438.867 4.04969 321.459 -3.36093 320.971 3.04016C321.492 3.88329 321.16 4.5711 320.239 4.5711C319.307 4.5711 318.553 3.93876 318.553 3.1511C318.553 2.33016 256.788 1.79766 171.898 1.87532C91.234 1.94188 25.5869 1.57579 24.7551 1.05438C23.28 0.144692 18.7327 -0.132652 14.5182 0.0559421M163.025 8.04344C172.752 8.26532 182.335 10.0403 190.387 9.99594C280.8 9.69641 362.03 10.0625 416.686 10.0736C457.988 10.0403 551.052 10.9389 612.241 10.9611L723.482 10.9833L722.861 32.017C722.517 43.5878 721.907 109.385 721.508 178.244C721.164 237.229 720.51 289.381 719.933 303.27C719.904 313.931 719.893 324.593 719.9 335.254C718.902 394.749 717.172 419.178 719.678 467.78C720.144 475.434 720.144 475.922 718.813 580.636C717.704 668.477 719.301 692.04 718.591 700.293C718.536 701.103 711.626 701.569 690.687 701.758C680.217 701.847 666.231 701.869 647.842 701.824C629.454 701.791 607.693 701.691 579.589 701.525C576.369 701.905 573.125 702.05 569.884 701.958C560.169 701.736 550.586 702.557 542.523 702.601C452.121 702.901 370.891 703.267 316.235 703.267C300.93 703.278 228.939 705.663 209.84 703.788C203.352 703.145 196.42 702.989 194.446 703.422C191.585 704.065 169.436 704.298 169.436 704.298L129.697 703.444C107.848 702.978 87.4742 702.69 84.4131 702.812C57.3291 703.899 16.0154 702.656 14.496 702.29C13.0985 701.946 13.1651 699.417 11.5569 698.996C9.27217 698.396 8.45145 696.178 7.76381 688.867C7.2869 683.731 7.14272 677.019 7.45326 673.957C8.22963 666.391 9.82672 456.519 9.74908 375.136C10.7251 315.64 13.6974 290.823 11.1909 242.21C10.7362 234.556 10.7473 234.068 12.0671 129.354C13.1762 41.5133 13.6198 17.9502 14.3185 9.69641C14.3851 8.88657 21.2836 8.42063 42.2344 8.24313C52.7042 8.14329 66.6787 8.13219 85.0674 8.16547C103.456 8.20985 125.217 8.30969 153.332 8.46501C156.548 8.06563 159.787 7.96579 163.025 8.04344Z" fill="black"/>
</g>
<defs>
<clipPath id="clip0_1_2">
<rect width="732" height="710.001" fill="white"/>
</clipPath>
</defs>
</svg>
